<svg xmlns="http://www.w3.org/2000/svg" xmlns:xlink="http://www.w3.org/1999/xlink" width="1279.998" height="691.163" viewBox="0 0 1279.998 691.163">
  <defs>
    <linearGradient id="linear-gradient" x1="0.5" x2="1.995" y2="0.439" gradientUnits="objectBoundingBox">
      <stop offset="0" stop-color="#0d8ca0"/>
      <stop offset="1" stop-color="#075045"/>
    </linearGradient>
  </defs>
  <g id="bg-img-big" transform="translate(-46.379 -102.178)">
    <path id="Path_19" data-name="Path 19" d="M1255.064,50.715V48.739H271.616V0h-3.84V48.739H139.613v1.976H267.777v46.1H139.613v1.976H267.777v46.1H139.613v1.976H267.777v46.095H139.613v1.976H267.777v46.095H139.613V243H267.777v46.1H139.613v1.976H267.777v46.095H139.613v1.976H267.777v46.1H139.613v1.976H267.777v46.095H139.613v1.976H267.777v46.095H139.613v1.976H267.777v46.1H139.613v1.976H267.777v46.095H139.613v1.976H267.777V625.59H139.613v1.976H267.777V667.8h3.84V627.566h983.448V625.59H271.616V579.495h983.448v-1.976H271.616V531.425h983.448v-1.976H271.616v-46.1h983.448v-1.976H271.616V435.283h983.448v-1.976H271.616V387.212h983.448v-1.976H271.616v-46.1h983.448v-1.976H271.616V291.07h983.448v-1.976H271.616V243h983.448v-1.976H271.616V194.928h983.448v-1.976H271.616V146.858h983.448v-1.976H271.616v-46.1h983.448V96.811H271.616v-46.1Z" transform="translate(-93.234 102.178)" fill="#e2e2e2" opacity="0.88"/>
    <path id="Path_258" data-name="Path 258" d="M-11821.015,3167h794.262v691.163h-419.187Z" transform="translate(12353.13 -3064.822)" fill="url(#linear-gradient)"/>
    <g id="Group_23" data-name="Group 23" transform="translate(634.061 282.354)" style="isolation: isolate">
      <ellipse id="Ellipse_56" data-name="Ellipse 56" cx="124.924" cy="6.87" rx="124.924" ry="6.87" transform="translate(23.25 382.283)" fill="#3f3d56"/>
      <ellipse id="Ellipse_57" data-name="Ellipse 57" cx="10.469" cy="11.389" rx="10.469" ry="11.389" transform="translate(16.249 330.606)" fill="#bc8465" opacity="0.84"/>
      <ellipse id="Ellipse_58" data-name="Ellipse 58" cx="7.344" cy="7.989" rx="7.344" ry="7.989" transform="translate(0 339.445)" fill="#e4cec1"/>
      <ellipse id="Ellipse_59" data-name="Ellipse 59" cx="8.888" cy="9.5" rx="8.888" ry="9.5" transform="translate(267.754 102.657)" fill="#3f3d56"/>
      <ellipse id="Ellipse_60" data-name="Ellipse 60" cx="8.394" cy="9.5" rx="8.394" ry="9.5" transform="translate(299.356 102.657)" fill="rgba(189,133,103,0.81)"/>
      <path id="Path_219" data-name="Path 219" d="M576.048,315.543s23.155-10.976,34.03.618S580.959,323.939,576.048,315.543Z" transform="translate(-457.436 -248.465)" fill="#3f3d56"/>
      <path id="Path_220" data-name="Path 220" d="M607.5,244.146c-7.781-14.3-23.176-14.97-23.176-14.97s-15-2.087-24.624,19.7c-8.969,20.3-21.348,39.909-1.993,44.662l3.5-11.838,2.165,12.719a69.613,69.613,0,0,0,8.281.154c20.728-.728,40.469.213,39.833-7.879C610.638,275.935,614.986,257.909,607.5,244.146Z" transform="translate(-448.906 -229.123)" fill="#2f2e41"/>
      <ellipse id="Ellipse_61" data-name="Ellipse 61" cx="39.293" cy="9.923" rx="39.293" ry="9.923" transform="translate(97.913 213.633)" fill="#a16c5b"/>
      <path id="Path_248" data-name="Path 248" d="M.011.337,44.34.051l-.009,1.526L0,1.863Z" transform="translate(124.508 348.528) rotate(-4.229)" fill="#2f2e41"/>
      <path id="Path_247" data-name="Path 247" d="M.7.067,2.2.015,1.606,16.357l-1.5.052Z" transform="matrix(0.482, -0.876, 0.876, 0.482, 104.899, 341.976)" fill="#2f2e41"/>
      <rect id="Rectangle_35" data-name="Rectangle 35" width="32.978" height="1.527" transform="translate(112.648 334.618)" fill="#2f2e41"/>
      <path id="Path_221" data-name="Path 221" d="M240.9,566.945l-1.4-.087,10.525-148.426,1.4.087Z" transform="translate(-140.885 -188.476)" fill="#2f2e41"/>
      <path id="Path_222" data-name="Path 222" d="M312.517,576.982,305.5,422.517l1.4-.066,7.017,154.464Z" transform="translate(-160.576 -198.513)" fill="#2f2e41"/>
      <path id="Path_249" data-name="Path 249" d="M1.377.013,2.781,0,1.612,159.642l-1.4.009Z" transform="matrix(0.997, -0.082, 0.082, 0.997, 162.394, 230.243)" fill="#2f2e41"/>
      <path id="Path_223" data-name="Path 223" d="M639.011,588.5s-9.823,19.846-16.138,19.846-5.613,12.976-4.21,16.03,4.911,9.923-.7,19.846c-1.961,3.466-1.61,7.4-.324,11.047,3.6,10.225,17.628,7.127,17.181-3.813q-.007-.181-.018-.364c-.7-12.213,4.911-31.3,10.525-35.876s10.525-16.793,10.525-16.793Z" transform="translate(-469.529 -314.184)" fill="#ffc4c4"/>
      <path id="Path_224" data-name="Path 224" d="M545.388,582.5s9.823,19.846,16.138,19.846,5.613,12.976,4.21,16.03-4.911,9.923.7,19.846c1.961,3.466,1.61,7.4.324,11.047-3.6,10.225-17.628,7.127-17.181-3.813q.007-.181.018-.364c.7-12.213-4.912-31.3-10.525-35.876s-10.525-16.793-10.525-16.793Z" transform="translate(-443.264 -312.764)" fill="#ffc4c4"/>
      <path id="Path_225" data-name="Path 225" d="M537.737,451.9l-4.21,9.923s-61.745,22.136-56.132,48.089,32.978,66.408,37.187,64.881,26.663-6.106,27.364-19.083-16.138-35.876-16.138-35.876l23.155-22.9,33.694-.763,28.753,23.663s-30.171,29.006-16.84,40.456,32.978,19.083,35.784,14.5,34.381-72.514,29.469-78.621S605.1,467.163,605.1,467.163l-13.331-20.609L539.841,443.5Z" transform="translate(-427.896 -279.864)" fill="#2f2e41"/>
      <path id="Path_226" data-name="Path 226" d="M579.447,287.712s3.508,25.189-3.508,28.242,14.033,16.03,14.033,16.03H601.9l7.718-17.556s-7.017-13.74-2.807-26.716S579.447,287.712,579.447,287.712Z" transform="translate(-456.976 -241.625)" fill="#ffb8b8"/>
      <path id="Path_227" data-name="Path 227" d="M579.447,287.712s3.508,25.189-3.508,28.242,14.033,16.03,14.033,16.03H601.9l7.718-17.556s-7.017-13.74-2.807-26.716S579.447,287.712,579.447,287.712Z" transform="translate(-456.976 -241.625)" fill="rgba(236,181,183,0.21)" opacity="0.1"/>
      <path id="Path_228" data-name="Path 228" d="M571.565,317.5s7.718,9.16,9.121,10.686,7.718,9.923,21.05-2.29,14.735,2.29,14.735,2.29v91.6s-11.226-5.343-20.348,0-28.066-1.527-28.066-1.527l-3.508-94.651Z" transform="translate(-454.005 -250.041)" fill="#d0cde1"/>
      <path id="Path_229" data-name="Path 229" d="M563.292,317.079s-6.557-3.053-12.17,0-25.26,18.319-23.856,25.189,19.646,54.958,7.016,77.858-14.734,29.006-14.734,29.006l30.872-17.556s23.856-16.03,21.751-25.953S563.292,317.079,563.292,317.079Z" transform="translate(-440.579 -249.62)" fill="#3f3d56"/>
      <path id="Path_230" data-name="Path 230" d="M618.8,317.5s14.726,1.527,15.428,3.053,22.1,8.015,20.7,14.884-20.7,68.316-12.279,79.766,22.453,27.479,17.541,29.006-13.331-2.29-21.751,0-28.066-16.793-25.961-37.4S612.5,322.843,618.8,317.5Z" transform="translate(-468.26 -250.041)" fill="#3f3d56"/>
      <path id="Path_231" data-name="Path 231" d="M615.089,509.5s-7.718,17.556,0,19.083,13.331-9.923,13.331-12.976S615.089,509.5,615.089,509.5Z" transform="translate(-468.06 -295.485)" fill="#ffc4c4"/>
      <path id="Path_232" data-name="Path 232" d="M272,574.294l-1.5-.032,4.506-153.786,1.5.032Z" transform="translate(-150.135 -185.022)" fill="#2f2e41"/>
      <ellipse id="Ellipse_62" data-name="Ellipse 62" cx="1.481" cy="3.5" rx="1.481" ry="3.5" transform="translate(155.171 31.657)" fill="#ffb8b8"/>
      <ellipse id="Ellipse_63" data-name="Ellipse 63" cx="1.481" cy="3.5" rx="1.481" ry="3.5" transform="translate(113.694 31.657)" fill="#ffb8b8"/>
      <path id="Path_233" data-name="Path 233" d="M637.808,330.5s17.541,0,16.839,7.633-23.856,138.923-23.856,138.923-9.823-9.923-18.243-7.633Z" transform="translate(-468.326 -253.118)" fill="#3f3d56"/>
      <path id="Path_234" data-name="Path 234" d="M557.048,363l15.787,67.164S565.468,371.4,557.048,363Z" transform="translate(-451.768 -260.81)" opacity="0.2"/>
      <path id="Path_235" data-name="Path 235" d="M637.776,350.636,621.809,438.45S626.912,355.7,637.776,350.636Z" transform="translate(-471.089 -257.884)" opacity="0.2"/>
      <ellipse id="Ellipse_64" data-name="Ellipse 64" cx="20.348" cy="22.136" rx="20.348" ry="22.136" transform="translate(116.156 14.028)" fill="#ffc4c4"/>
      <path id="Path_236" data-name="Path 236" d="M302.834,120.311l-15.209-8.667-21,3.546-4.345,20.879,10.817-.453,3.022-7.67v7.545l4.992-.209,2.9-12.212,1.811,13,17.744-.394Z" transform="translate(-147.681 -106.666)" fill="#2f2e41"/>
      <g id="flowers" transform="translate(226.502 253.657)">
        <path id="Path_237" data-name="Path 237" d="M772.034,736.661l-1.4-.03a384.072,384.072,0,0,1,4.982-50.6c6.068-35.785,16.159-59.286,29.991-69.852l.806,1.249C774.1,642.112,772.051,735.718,772.034,736.661Z" transform="translate(-770.631 -601.333)" fill="#2f2e41"/>
        <path id="Path_238" data-name="Path 238" d="M797.034,757.238l-1.4-.03c.03-1.691.907-41.535,15.326-52.548l.806,1.249C797.925,716.478,797.041,756.832,797.034,757.238Z" transform="translate(-778.089 -622.274)" fill="#2f2e41"/>
        <ellipse id="Ellipse_65" data-name="Ellipse 65" cx="6.913" cy="8" rx="6.913" ry="8" transform="translate(38.289)" fill="#c5afa1"/>
        <ellipse id="Ellipse_66" data-name="Ellipse 66" cx="6.419" cy="7" rx="6.419" ry="7" transform="translate(34.339 67)" fill="#e4cec1"/>
        <path id="Path_239" data-name="Path 239" d="M789.01,619.088a36.558,36.558,0,0,1-2.118,17.358A35.039,35.039,0,0,1,780,620.623a36.555,36.555,0,0,1,2.118-17.358A35.047,35.047,0,0,1,789.01,619.088Z" transform="translate(-773.335 -598.276)" fill="#2f2e41"/>
        <path id="Path_240" data-name="Path 240" d="M818.819,649.752a28.744,28.744,0,0,1-16.081.755s5.057-7.133,13.122-10.142a28.743,28.743,0,0,1,16.081-.755S826.883,646.743,818.819,649.752Z" transform="translate(-780.211 -606.686)" fill="#2f2e41"/>
        <path id="Path_241" data-name="Path 241" d="M821.233,726.906a20.155,20.155,0,0,1-11.271.53A19.039,19.039,0,0,1,830.43,719.8,21.978,21.978,0,0,1,821.233,726.906Z" transform="translate(-782.365 -625.705)" fill="#2f2e41"/>
      </g>
      <rect id="Rectangle_37" data-name="Rectangle 37" width="99.744" height="1" transform="translate(219.363 121.657)" fill="#3f3d56"/>
      <rect id="Rectangle_38" data-name="Rectangle 38" width="1.403" height="14.121" transform="translate(247.716 107.533)" fill="#3f3d56"/>
      <rect id="Rectangle_39" data-name="Rectangle 39" width="1.403" height="14.121" transform="translate(290.516 107.533)" fill="#3f3d56"/>
      <path id="Path_242" data-name="Path 242" d="M571.327,507.317v7.633s-3.508,17.556,7.718,16.793,4.21-21.373,4.21-21.373l-.7-6.87Z" transform="translate(-455.873 -294.065)" fill="#ffc4c4"/>
      <path id="Path_243" data-name="Path 243" d="M544.089,333.5s-17.541,3.817-17.541,15.266,25.26,121.366,28.768,121.366,16.84-2.29,16.84-6.107S544.089,333.5,544.089,333.5Z" transform="translate(-442.668 -253.828)" fill="#3f3d56"/>
    </g>
  </g>
</svg>
