<svg xmlns="http://www.w3.org/2000/svg" width="992" height="543.667" viewBox="0 0 992 543.667">
  <g id="bg-img-medium" transform="translate(57 -108.149)">
    <path id="Path_19" data-name="Path 19" d="M1131.613,51.883V49.862H257.007V0h-3.415V49.862H139.613v2.021H253.592V99.041H139.613v2.021H253.592V148.22H139.613v2.021H253.592V197.4H139.613v2.021H253.592v47.157H139.613V248.6H253.592v47.158H139.613v2.021H253.592v47.157H139.613v2.021H253.592v47.158H139.613v2.021H253.592v47.157H139.613v2.021H253.592v47.157H139.613v2.021H253.592v47.158H139.613l117.394,2.021h874.606v-2.021H257.007V494.488h874.606v-2.021H257.007V445.31h874.606v-2.021H257.007V396.133h874.606v-2.021H257.007V346.954h874.606v-2.021H257.007V297.776h874.606v-2.021H257.007V248.6h874.606v-2.021H257.007V199.419h874.606V197.4H257.007V150.241h874.606V148.22H257.007V101.062h874.606V99.041H257.007V51.883Z" transform="translate(-196.613 108.149)" fill="#e2e2e2" opacity="0.88"/>
    <text id="SAKSHI_CHOUDHARY_." data-name="SAKSHI 
CHOUDHARY ." transform="translate(104.877 304)" fill="#00a78e" font-size="38" font-family="MyriadPro-Bold, Myriad Pro" font-weight="700"><tspan x="0" y="0">SAKSHI </tspan><tspan x="0" y="33">CHOUDHARY</tspan><tspan y="33" fill="#cbf35c" font-family="ComicSansMS, Comic Sans MS" font-weight="400"> </tspan><tspan y="33" fill="#707070" font-family="ComicSansMS, Comic Sans MS" font-weight="400">.</tspan></text>
    <text id="I_am_a_Full_Stack_Web_Developer_UI_UX_Developer_Freelancer_a_Machine_Learning_Enthusiast._" data-name="I am a Full Stack Web Developer,
UI/UX Developer, Freelancer
&amp; a Machine Learning Enthusiast.
" transform="translate(111.5 450)" fill="#707070" font-size="25" font-family="Poppins-Regular, Poppins"><tspan x="0" y="0">I am a Full Stack Web Developer,</tspan><tspan x="0" y="42">UI/UX Developer, Freelancer</tspan><tspan x="0" y="84">&amp; a Machine Learning Enthusiast.</tspan><tspan x="0" y="126"></tspan></text>
    <text id="HEY_It_s_" data-name="HEY, It&apos;s " transform="translate(107.459 246)" fill="#6d6d6d" font-size="22" font-family="Calibri-Bold, Calibri" font-weight="700"><tspan x="0" y="0">HEY, It&apos;s </tspan></text>
    <g id="Group_23" data-name="Group 23" transform="translate(457.439 174.512)" style="isolation: isolate">
      <ellipse id="Ellipse_56" data-name="Ellipse 56" cx="76.584" cy="3.86" rx="76.584" ry="3.86" transform="translate(14.253 214.799)" fill="#3f3d56"/>
      <ellipse id="Ellipse_57" data-name="Ellipse 57" cx="6.418" cy="6.399" rx="6.418" ry="6.399" transform="translate(9.961 185.763)" fill="#bc8465" opacity="0.84"/>
      <ellipse id="Ellipse_58" data-name="Ellipse 58" cx="4.502" cy="4.489" rx="4.502" ry="4.489" transform="translate(0 190.729)" fill="#e4cec1"/>
      <ellipse id="Ellipse_59" data-name="Ellipse 59" cx="5.795" cy="5.202" rx="5.795" ry="5.202" transform="translate(164.088 57.909)" fill="#3f3d56"/>
      <ellipse id="Ellipse_60" data-name="Ellipse 60" cx="5.268" cy="5.202" rx="5.268" ry="5.202" transform="translate(183.053 57.909)" fill="rgba(189,133,103,0.81)"/>
      <path id="Path_219" data-name="Path 219" d="M576.048,313.483s14.195-6.167,20.862.348S579.059,318.2,576.048,313.483Z" transform="translate(-503.334 -275.793)" fill="#3f3d56"/>
      <path id="Path_220" data-name="Path 220" d="M584.265,237.564c-4.77-8.037-14.208-8.411-14.208-8.411s-9.2-1.173-15.1,11.067c-5.5,11.409-13.087,22.424-1.222,25.095l2.143-6.652,1.327,7.147a46.552,46.552,0,0,0,5.077.087c12.707-.409,24.809.12,24.419-4.427C586.189,255.426,588.855,245.3,584.265,237.564Z" transform="translate(-487.041 -229.123)" fill="#2f2e41"/>
      <ellipse id="Ellipse_61" data-name="Ellipse 61" cx="24.088" cy="5.576" rx="24.088" ry="5.576" transform="translate(60.025 120.038)" fill="#a16c5b"/>
      <path id="Path_248" data-name="Path 248" d="M0,0,27.162.006V.863L0,.858Z" transform="translate(76.351 196.021) rotate(-4.229)" fill="#2f2e41"/>
      <path id="Path_247" data-name="Path 247" d="M0,0H.858L.87,9.813H.012Z" transform="matrix(0.482, -0.876, 0.876, 0.482, 64.551, 191.823)" fill="#2f2e41"/>
      <rect id="Rectangle_35" data-name="Rectangle 35" width="20.217" height="0.858" transform="translate(69.058 188.017)" fill="#2f2e41"/>
      <path id="Path_221" data-name="Path 221" d="M240.361,501.879l-.859-.049,6.452-83.4.859.049Z" transform="translate(-179.046 -289.223)" fill="#2f2e41"/>
      <path id="Path_222" data-name="Path 222" d="M309.8,509.28l-4.3-86.791.859-.037,4.3,86.791Z" transform="translate(-216.656 -296.624)" fill="#2f2e41"/>
      <path id="Path_249" data-name="Path 249" d="M0,0H.86L.814,89.75h-.86Z" transform="matrix(0.997, -0.082, 0.082, 0.997, 100.396, 129.314)" fill="#2f2e41"/>
      <path id="Path_223" data-name="Path 223" d="M630.332,588.5s-6.022,11.151-9.893,11.151-3.441,7.291-2.581,9.007,3.011,5.576-.43,11.151a6.825,6.825,0,0,0-.2,6.207c2.21,5.745,10.807,4,10.533-2.142,0-.068-.007-.136-.011-.2-.43-6.862,3.011-17.585,6.452-20.158s6.452-9.436,6.452-9.436Z" transform="translate(-526.432 -434.365)" fill="#ffc4c4"/>
      <path id="Path_224" data-name="Path 224" d="M538.871,582.5s6.022,11.151,9.893,11.151,3.441,7.291,2.581,9.007-3.011,5.576.43,11.151a6.824,6.824,0,0,1,.2,6.207c-2.21,5.745-10.807,4-10.533-2.143q0-.1.011-.2c.43-6.862-3.011-17.585-6.452-20.158s-6.452-9.436-6.452-9.436Z" transform="translate(-476.265 -430.939)" fill="#ffc4c4"/>
      <path id="Path_225" data-name="Path 225" d="M514.247,448.218l-2.581,5.576s-37.853,12.438-34.411,27.02,20.217,37.314,22.8,36.456,16.345-3.431,16.775-10.722-9.893-20.158-9.893-20.158l14.195-12.867,20.656-.429,17.627,13.3s-18.5,16.3-10.323,22.731,20.217,10.722,21.937,8.149,21.077-40.745,18.066-44.176-33.551-16.3-33.551-16.3l-8.173-11.58L515.538,443.5Z" transform="translate(-446.91 -351.555)" fill="#2f2e41"/>
      <path id="Path_226" data-name="Path 226" d="M577.536,285.185s2.151,14.154-2.151,15.869,8.6,9.007,8.6,9.007H591.3l4.732-9.865s-4.3-7.72-1.721-15.011S577.536,285.185,577.536,285.185Z" transform="translate(-502.455 -259.29)" fill="#ffb8b8"/>
      <path id="Path_227" data-name="Path 227" d="M577.536,285.185s2.151,14.154-2.151,15.869,8.6,9.007,8.6,9.007H591.3l4.732-9.865s-4.3-7.72-1.721-15.011S577.536,285.185,577.536,285.185Z" transform="translate(-502.455 -259.29)" fill="rgba(236,181,183,0.21)" opacity="0.1"/>
      <path id="Path_228" data-name="Path 228" d="M568.849,317.5s4.732,5.147,5.592,6,4.732,5.576,12.9-1.287,9.033,1.287,9.033,1.287v51.467s-6.882-3-12.474,0-17.206-.858-17.206-.858l-2.151-53.183Z" transform="translate(-496.78 -279.596)" fill="#d0cde1"/>
      <path id="Path_229" data-name="Path 229" d="M546.365,316.485s-4.02-1.716-7.461,0-15.485,10.293-14.625,14.154,12.044,30.88,4.3,43.747-9.033,16.3-9.033,16.3l18.926-9.865s14.625-9.007,13.334-14.582S546.365,316.485,546.365,316.485Z" transform="translate(-471.136 -278.58)" fill="#3f3d56"/>
      <path id="Path_230" data-name="Path 230" d="M616.3,317.5s9.028.858,9.458,1.716,13.549,4.5,12.689,8.363-12.689,38.386-7.527,44.819,13.765,15.44,10.754,16.3-8.173-1.287-13.334,0-17.206-9.436-15.915-21.016S612.431,320.5,616.3,317.5Z" transform="translate(-524.007 -279.596)" fill="#3f3d56"/>
      <path id="Path_231" data-name="Path 231" d="M613.762,509.5s-4.732,9.865,0,10.722,8.173-5.576,8.173-7.291S613.762,509.5,613.762,509.5Z" transform="translate(-523.627 -389.248)" fill="#ffc4c4"/>
      <path id="Path_232" data-name="Path 232" d="M271.421,506.9l-.921-.018,2.762-86.41.921.018Z" transform="translate(-196.711 -288.178)" fill="#2f2e41"/>
      <ellipse id="Ellipse_62" data-name="Ellipse 62" cx="1.054" cy="2.081" rx="1.054" ry="2.081" transform="translate(95.603 17.331)" fill="#ffb8b8"/>
      <ellipse id="Ellipse_63" data-name="Ellipse 63" cx="1.054" cy="2.081" rx="1.054" ry="2.081" transform="translate(70.317 17.331)" fill="#ffb8b8"/>
      <path id="Path_233" data-name="Path 233" d="M628.033,330.5s10.754,0,10.323,4.289-14.625,78.059-14.625,78.059-6.022-5.576-11.184-4.289Z" transform="translate(-524.134 -287.02)" fill="#3f3d56"/>
      <path id="Path_234" data-name="Path 234" d="M557.048,363l9.678,37.739S562.21,367.718,557.048,363Z" transform="translate(-492.507 -305.581)" opacity="0.2"/>
      <path id="Path_235" data-name="Path 235" d="M631.6,350.636l-9.788,49.342S624.937,353.482,631.6,350.636Z" transform="translate(-529.411 -298.52)" opacity="0.2"/>
      <ellipse id="Ellipse_64" data-name="Ellipse 64" cx="12.474" cy="12.438" rx="12.474" ry="12.438" transform="translate(71.208 7.882)" fill="#ffc4c4"/>
      <path id="Path_236" data-name="Path 236" d="M287.14,116.514l-9.324-4.87-12.875,1.992-2.664,11.732,6.631-.254,1.853-4.31v4.239l3.06-.118,1.776-6.862,1.11,7.3,10.878-.221Z" transform="translate(-192.025 -108.847)" fill="#2f2e41"/>
      <g id="flowers" transform="translate(138.855 142.186)">
        <path id="Path_237" data-name="Path 237" d="M771.491,683.878l-.86-.017a198.385,198.385,0,0,1,3.054-28.43c3.72-20.107,9.906-33.312,18.386-39.249l.494.7C772.755,630.752,771.5,683.347,771.491,683.878Z" transform="translate(-770.631 -607.499)" fill="#2f2e41"/>
        <path id="Path_238" data-name="Path 238" d="M796.491,734.2l-.86-.017c.019-.95.556-23.338,9.4-29.526l.494.7C797.037,711.3,796.5,733.975,796.491,734.2Z" transform="translate(-784.877 -658.029)" fill="#2f2e41"/>
        <ellipse id="Ellipse_65" data-name="Ellipse 65" cx="4.741" cy="4.682" rx="4.741" ry="4.682" transform="translate(23.126)" fill="#c5afa1"/>
        <ellipse id="Ellipse_66" data-name="Ellipse 66" cx="4.214" cy="3.642" rx="4.214" ry="3.642" transform="translate(21.018 38.497)" fill="#e4cec1"/>
        <path id="Path_239" data-name="Path 239" d="M785.406,612.156a19,19,0,0,1-1.3,9.753,17.323,17.323,0,0,1-2.927-18.644A19.033,19.033,0,0,1,785.406,612.156Z" transform="translate(-775.797 -600.122)" fill="#2f2e41"/>
        <path id="Path_240" data-name="Path 240" d="M812.6,644.954a19.161,19.161,0,0,1-9.858.424,17.441,17.441,0,0,1,17.9-6.123A19.1,19.1,0,0,1,812.6,644.954Z" transform="translate(-788.928 -620.416)" fill="#2f2e41"/>
        <path id="Path_241" data-name="Path 241" d="M816.872,723.51a13.431,13.431,0,0,1-6.91.3,12.225,12.225,0,0,1,12.548-4.292A13.39,13.39,0,0,1,816.872,723.51Z" transform="translate(-793.044 -666.307)" fill="#2f2e41"/>
      </g>
      <rect id="Rectangle_37" data-name="Rectangle 37" width="61.109" height="1.04" transform="translate(134.587 68.314)" fill="#3f3d56"/>
      <rect id="Rectangle_38" data-name="Rectangle 38" width="0.86" height="7.935" transform="translate(151.861 60.421)" fill="#3f3d56"/>
      <rect id="Rectangle_39" data-name="Rectangle 39" width="0.86" height="7.935" transform="translate(178.099 60.421)" fill="#3f3d56"/>
      <path id="Path_242" data-name="Path 242" d="M571.126,505.645v4.289s-2.151,9.865,4.732,9.436,2.581-12.009,2.581-12.009l-.43-3.86Z" transform="translate(-500.348 -385.822)" fill="#ffc4c4"/>
      <path id="Path_243" data-name="Path 243" d="M537.3,333.5s-10.754,2.144-10.754,8.578,15.485,68.194,17.636,68.194,10.323-1.287,10.323-3.431S537.3,333.5,537.3,333.5Z" transform="translate(-475.126 -288.733)" fill="#3f3d56"/>
    </g>
  </g>
</svg>
